<svg xmlns="http://www.w3.org/2000/svg" width="682.667" height="682.667" version="1.0" viewBox="0 0 512 512"><path fill="#3b5998" d="M41.5 1C23.2 4.8 8.5 18 2.4 36 .6 41.3.5 49.4.5 256s.1 214.7 1.9 220c5.2 15.4 16.8 27.4 32.2 33.2l5.9 2.3h431l5.9-2.3c15.4-5.8 27-17.8 32.2-33.2 1.8-5.3 1.9-13.4 1.9-220s-.1-214.7-1.9-220c-5.2-15.4-16.8-27.4-32.2-33.2L471.5.5l-213-.1C141.3.3 43.7.6 41.5 1zm222 93.1c38.5 4.7 71.5 23.3 89 50.2 12 18.6 16.8 34.4 16.8 55.7-.1 38.3-18 75.3-50 103.3-14.9 13-36.3 25.7-54.3 32.2-9.4 3.3-23.8 6.6-24.5 5.5-.3-.5 5.9-4.2 13.7-8.2 16.8-8.5 40.2-23.9 50.8-33.3 26.9-23.8 45-55.6 49.1-86.2 4.6-34.6-11-70-39.3-89.1-20.4-13.8-44.5-21.3-72.8-22.8-11.2-.6-31.2.6-37.7 2.3-4.5 1.1-2.2-1.6 3.1-3.6 17.3-6.5 35.9-8.5 56.1-6zm9 16.8c10.3 2.8 26.4 10.5 36 17.2 8.9 6.1 21.6 19.3 26.4 27.2 13.2 22.2 14.5 50 3.5 76.7-4 9.8-15.4 26.1-15.4 22 0-.7 1.7-5.4 3.9-10.4 4.7-11.2 5.1-12.7 6.1-24.6 1-10.9-.2-26.9-2.6-36.8-3.1-12.6-6.7-18.8-17.3-29.2-14.7-14.5-32.7-24.2-51.6-27.8-11.5-2.1-45.4-2-59.9.2-15.1 2.4-31.8 6.8-40 10.5-9.4 4.3-10.9 4-6.1-1 10.4-10.7 36.2-20.9 64-25.4 13.9-2.2 42.6-1.4 53 1.4zM255 132.5c21.5 3.8 35.6 10.2 47 21.5 22.4 21.9 26.9 54.4 11.8 84.5-16.1 32-47.2 60-96.3 86.7-15.4 8.4-37.3 19.4-40.2 20.3-3.8 1.1-2.6-.8 3.3-5 7.7-5.5 9.1-7.9 11.4-18.8 3.1-15.1 6.5-27.9 17.5-65.7 15.7-53.9 17.8-63.1 20.1-89.4.3-3.7.9-6.4 1.4-6 .4.5 1.6 3.4 2.6 6.4 2.5 7.3 2.5 28.8 0 45-3 19.8-11.2 53.9-26.6 109.8-.8 3.2-.6 3.1 13.3-6.4 27.3-18.7 41.3-30 54.7-44.1 31.9-33.7 42.6-67.4 29.6-93.3-8.7-17.4-26.4-28.3-55.1-34-11.2-2.3-30.5-3.8-30.5-2.4 0 .5.5 2.9 1.1 5.4 3.6 15.7 2.7 40.5-2.2 58.9-6.2 23.5-25.2 76.8-32.6 91.9-5.6 11.3-5.9 5-1.1-23.2 1.6-9.9 3.9-21.2 4.9-25 9.2-33.7 13.8-56.6 17.8-88.4 2.7-20.8 2.7-20.2-.4-20.2-2.3 0-2.5.3-2.5 5.2-.1 22.4-6.5 50.5-23 101.3-13.1 40.4-17.2 58.8-19.2 86.3-2.1 28.8 1.8 56.6 10.6 75.7 4 8.6 4.2 11.1.7 7.4-12.6-13.3-21.8-37.2-24.1-63.1-2.6-28.7 2.7-57.9 23-125.8 16-54 18.8-64.3 21.5-81.8.7-4.1.6-4.3-1.7-3.8-1.2.3-6.1 1.3-10.8 2.2-4.7.9-14.4 3.4-21.7 5.5-13.6 4-16.3 4.5-16.3 3 0-1.4 18.4-10.5 28.1-13.9 9.6-3.4 24.5-6.8 35.9-8.2 10.7-1.3 36.8-.5 48 1.5zm24 170.4c0 2.1-17.7 17.4-26.2 22.6-12.7 7.9-30.1 16.3-44.5 21.5l-12.3 4.4-1.4 4.5c-.8 2.6-2.2 7.5-3.1 11.1-3.1 12.6-3.6 14-4.5 14-.6 0-1-5.3-1-13v-13l-3.5 1.7c-4.6 2.2-4.9 3.8-4.1 18.9.6 12.7 3.7 27.1 7.7 37.2 3.6 8.8.4 8.3-5.8-1.1-8.4-12.7-10.7-20.8-10.7-38.9-.1-11.3.1-12.9 2-15.5 1.6-2.1 8.2-5.5 27-13.9 14.3-6.4 32.1-15.3 41.9-21 17.8-10.3 36.5-20.3 37.8-20.4.4 0 .7.4.7.9z"/></svg>